HIERARCHY
ROOT Hips
{
	OFFSET 47.526299 -13.284913 84.175797
	CHANNELS 6 Xposition Yposition Zposition Xrotation Yrotation Zrotation
	JOINT spine
	{
		OFFSET 0.000000 -0.359108 6.244797
		CHANNELS 3 Xrotation Yrotation Zrotation
		JOINT spine1
		{
			OFFSET 0.000000 -0.000002 9.069412
			CHANNELS 3 Xrotation Yrotation Zrotation
			JOINT spine2
			{
				OFFSET 0.000000 -0.000001 8.690140
				CHANNELS 3 Xrotation Yrotation Zrotation
				JOINT Neck
				{
					OFFSET 0.000000 -1.063724 22.311203
					CHANNELS 3 Xrotation Yrotation Zrotation
					JOINT Head
					{
						OFFSET 0.000000 -0.000001 6.740814
						CHANNELS 3 Xrotation Yrotation Zrotation
						End Site
						{
							OFFSET 0.000000 5.380967 16.316498
						}
					}
				}
				JOINT RightShoulder
				{
					OFFSET -3.659161 0.509512 9.384682
					CHANNELS 3 Xrotation Yrotation Zrotation
					JOINT RightArm
					{
						OFFSET 0.000000 -0.000002 12.308907
						CHANNELS 3 Xrotation Yrotation Zrotation
						JOINT RightArmRoll
						{
							OFFSET 0.000000 -0.000001 6.213745
							CHANNELS 3 Xrotation Yrotation Zrotation
							JOINT RightForeArm
							{
								OFFSET 0.000000 -0.000003 18.098495
								CHANNELS 3 Xrotation Yrotation Zrotation
								JOINT RightForeArmRoll
								{
									OFFSET 0.000000 -0.000002 6.972794
									CHANNELS 3 Xrotation Yrotation Zrotation
									JOINT RightHand
									{
										OFFSET 0.000000 -0.000002 13.992905
										CHANNELS 3 Xrotation Yrotation Zrotation
										End Site
										{
											OFFSET 0.000000 0.000000 0.100006
										}
									}
								}
							}
						}
					}
				}
				JOINT LeftShoulder
				{
					OFFSET 3.659161 0.509512 9.384682
					CHANNELS 3 Xrotation Yrotation Zrotation
					JOINT LeftArm
					{
						OFFSET 0.000000 -0.000002 12.308907
						CHANNELS 3 Xrotation Yrotation Zrotation
						JOINT LeftArmRoll
						{
							OFFSET 0.000000 -0.000001 6.213745
							CHANNELS 3 Xrotation Yrotation Zrotation
							JOINT LeftForeArm
							{
								OFFSET 0.000000 -0.000003 18.098495
								CHANNELS 3 Xrotation Yrotation Zrotation
								JOINT LeftForeArmRoll
								{
									OFFSET 0.000000 -0.000002 6.972794
									CHANNELS 3 Xrotation Yrotation Zrotation
									JOINT LeftHand
									{
										OFFSET 0.000000 -0.000002 13.992905
										CHANNELS 3 Xrotation Yrotation Zrotation
										End Site
										{
											OFFSET 0.000000 0.000000 0.100006
										}
									}
								}
							}
						}
					}
				}
			}
		}
	}
	JOINT RightUpLeg
	{
		OFFSET -5.535160 0.851454 -1.014999
		CHANNELS 3 Xrotation Yrotation Zrotation
		JOINT RightUpLegRoll
		{
			OFFSET 0.000000 -0.000003 16.407501
			CHANNELS 3 Xrotation Yrotation Zrotation
			JOINT RightLeg
			{
				OFFSET 0.000000 0.000003 -20.318100
				CHANNELS 3 Xrotation Yrotation Zrotation
				JOINT RightLegRoll
				{
					OFFSET 0.000000 -0.000003 20.384598
					CHANNELS 3 Xrotation Yrotation Zrotation
					JOINT RightFoot
					{
						OFFSET 0.000000 -0.000003 16.966797
						CHANNELS 3 Xrotation Yrotation Zrotation
						JOINT RightToeBase
						{
							OFFSET 0.000000 -0.000002 14.183395
							CHANNELS 3 Xrotation Yrotation Zrotation
							End Site
							{
								OFFSET 0.006012 0.791744 6.868896
							}
						}
					}
				}
			}
		}
	}
	JOINT LeftUpLeg
	{
		OFFSET 5.535160 0.851454 -1.014999
		CHANNELS 3 Xrotation Yrotation Zrotation
		JOINT LeftUpLegRoll
		{
			OFFSET 0.000000 -0.000003 16.407600
			CHANNELS 3 Xrotation Yrotation Zrotation
			JOINT LeftLeg
			{
				OFFSET 0.000000 -0.000003 20.318100
				CHANNELS 3 Xrotation Yrotation Zrotation
				JOINT LeftLegRoll
				{
					OFFSET 0.000000 -0.000004 20.573097
					CHANNELS 3 Xrotation Yrotation Zrotation
					JOINT LeftFoot
					{
						OFFSET 0.000000 -0.000003 16.778305
						CHANNELS 3 Xrotation Yrotation Zrotation
						JOINT LeftToeBase
						{
							OFFSET 0.000000 -0.000002 14.183395
							CHANNELS 3 Xrotation Yrotation Zrotation
							End Site
							{
								OFFSET -0.026943 0.791745 6.868896
							}
						}
					}
				}
			}
		}
	}
}
MOTION
Frames: 7
Frame Time: 0.041667
47.111500 -13.191913 84.126305 -1.316657 0.302868 -4.285579 -1.674407 0.322745 0.093585 0.675328 0.641891 0.193525 2.320447 0.644322 0.185877 12.563691 -6.496820 1.482993 1.403331 4.327607 1.743505 -1.524649 -68.118583 -2.757387 120.622370 -36.462036 101.041085 -0.000016 -0.000002 -0.000012 92.072466 -1.225399 -4.547831 0.000004 0.000004 -3.000000 -5.000034 -7.999932 0.000000 -16.599918 59.362841 19.606975 -55.496247 140.433990 81.280317 0.000004 0.000001 0.000000 93.543020 -1.914895 6.780217 0.000008 -0.000009 3.000011 -4.999886 8.000053 0.000021 -6.367631 -176.878335 -0.177091 -179.999991 0.000005 -0.839002 168.205074 -0.107679 -1.113480 0.000001 -0.000001 0.096681 69.574472 5.417243 5.963966 25.456959 -7.355616 -0.000001 -0.182255 175.617032 -3.233360 -0.000005 -0.000004 -1.013580 -11.767636 1.248623 0.992522 0.000000 0.000002 -0.270629 74.330702 -6.406865 -3.150281 25.457968 7.355616 -0.001549 
47.108501 -13.195007 84.126808 -1.311798 0.303114 -4.293729 -1.675376 0.322953 0.093243 0.672820 0.642019 0.193150 2.317937 0.644435 0.185496 12.580493 -6.504349 1.485123 1.400162 4.337879 1.744575 -1.536569 -68.122271 -2.771126 120.658324 -36.401121 101.121449 -0.000012 -0.000001 -0.000014 92.048465 -1.236528 -4.531892 0.000002 0.000006 -3.000002 -5.000039 -7.999932 0.000000 -16.572079 59.377300 19.574171 -55.494382 140.464234 81.256363 -0.000003 -0.000001 0.000001 93.556994 -1.925236 6.780784 0.000008 -0.000010 3.000012 -4.999888 8.000054 0.000021 -6.373451 -176.876382 -0.175201 -179.999991 0.000005 -0.839001 168.208080 -0.112575 -1.112502 0.000002 -0.000000 0.096777 69.574363 5.418050 5.962216 25.456959 -7.355617 0.000000 -0.183885 175.616021 -3.234013 -0.000005 -0.000004 -1.013580 -11.764043 1.250440 0.992486 -0.000001 0.000002 -0.270708 74.330585 -6.408221 -3.146676 25.457968 7.355617 -0.001550 
47.112099 -13.203209 84.132210 -1.306537 0.303059 -4.301568 -1.676297 0.323329 0.092974 0.670069 0.642346 0.192988 2.315186 0.644748 0.185325 12.598035 -6.513195 1.486829 1.396277 4.348314 1.745325 -1.547766 -68.128473 -2.784338 120.694210 -36.341247 101.198077 -0.000013 -0.000001 -0.000013 92.021486 -1.247504 -4.514984 0.000005 0.000002 -3.000000 -5.000035 -7.999932 -0.000001 -16.538933 59.391527 19.535091 -55.494583 140.491732 81.243673 0.000002 -0.000001 0.000000 93.563592 -1.935296 6.781208 0.000007 -0.000010 3.000014 -4.999887 8.000054 0.000021 -6.379563 -176.874442 -0.173335 -179.999991 0.000005 -0.839003 168.211276 -0.117470 -1.112520 0.000002 -0.000001 0.096880 69.574370 5.418901 5.960172 25.456962 -7.355615 -0.000001 -0.185540 175.616021 -3.234417 -0.000005 -0.000005 -1.013590 -11.759450 1.252380 0.992434 -0.000000 0.000002 -0.270785 74.329916 -6.409800 -3.142831 25.457966 7.355616 -0.001550 
47.108799 -13.200612 84.133919 -1.300915 0.302755 -4.309125 -1.677177 0.323847 0.092767 0.667117 0.642845 0.193005 2.312227 0.645232 0.185333 12.616114 -6.523169 1.488144 1.391915 4.358789 1.745781 -1.558345 -68.136984 -2.797073 120.729276 -36.282866 101.268927 -0.000014 -0.000000 -0.000013 91.992294 -1.258390 -4.498117 0.000002 0.000004 -2.999999 -5.000038 -7.999932 -0.000001 -16.501322 59.405304 19.490722 -55.495601 140.517700 81.240148 -0.000002 0.000000 -0.000002 93.563517 -1.944857 6.781506 0.000008 -0.000007 3.000011 -4.999884 8.000055 0.000021 -6.385907 -176.873486 -0.171401 -179.999991 0.000005 -0.839002 168.214568 -0.121390 -1.112333 0.000002 -0.000001 0.096991 69.574281 5.419780 5.958134 25.456959 -7.355616 0.000000 -0.187245 175.617032 -3.234600 -0.000005 -0.000004 -1.013600 -11.754057 1.254421 0.992369 -0.000001 0.000002 -0.270862 74.328796 -6.411592 -3.138542 25.457964 7.355615 -0.001549 
47.105801 -13.194714 84.129219 -1.294979 0.302253 -4.316437 -1.678018 0.324481 0.092608 0.664004 0.643489 0.193172 2.309117 0.645858 0.185488 12.634417 -6.534101 1.489099 1.387284 4.369214 1.745973 -1.568391 -68.147092 -2.809407 120.764807 -36.224960 101.335453 -0.000014 -0.000002 -0.000011 91.961257 -1.269071 -4.481282 0.000003 0.000003 -3.000000 -5.000034 -7.999932 -0.000002 -16.460278 59.418794 19.442291 -55.498091 140.541551 81.246965 -0.000004 -0.000002 0.000001 93.557445 -1.953876 6.780686 0.000009 -0.000009 3.000012 -4.999888 8.000055 0.000022 -6.392491 -176.871532 -0.169649 -179.999991 0.000005 -0.839002 168.218079 -0.126285 -1.112336 0.000001 -0.000000 0.097109 69.574206 5.420724 5.956008 25.456964 -7.355616 -0.000001 -0.189026 175.618015 -3.234587 -0.000005 -0.000004 -1.013600 -11.747866 1.256525 0.992289 0.000001 0.000002 -0.270938 74.327293 -6.413528 -3.134097 25.457964 7.355617 -0.001550 
47.106800 -13.195012 84.129211 -1.288757 0.301603 -4.323515 -1.678829 0.325203 0.092488 0.660771 0.644247 0.193460 2.305887 0.646600 0.185759 12.652738 -6.545790 1.489725 1.382595 4.379510 1.745922 -1.578007 -68.158697 -2.821416 120.800283 -36.168095 101.395743 -0.000014 -0.000001 -0.000012 91.928985 -1.279459 -4.465472 0.000003 0.000004 -3.000000 -5.000034 -7.999932 0.000000 -16.416725 59.431873 19.390890 -55.500017 140.564979 81.260830 0.000001 0.000002 0.000000 93.546168 -1.962112 6.780734 0.000004 -0.000011 3.000011 -4.999888 8.000055 0.000021 -6.399281 -176.868596 -0.168091 -179.999991 0.000005 -0.839002 168.221562 -0.130206 -1.112148 0.000001 -0.000001 0.097233 69.574253 5.421681 5.953679 25.456964 -7.355616 -0.000000 -0.190905 175.618029 -3.234412 -0.000005 -0.000005 -1.013610 -11.741175 1.258681 0.992200 0.000001 0.000002 -0.271013 74.325517 -6.415579 -3.129379 25.457968 7.355617 -0.001550 
47.109901 -13.196912 84.137306 -1.282299 0.300856 -4.330406 -1.679606 0.325989 0.092396 0.657457 0.645093 0.193833 2.302568 0.647430 0.186117 12.670675 -6.558076 1.490041 1.378074 4.389575 1.745656 -1.587285 -68.171319 -2.833140 120.836333 -36.111780 101.449954 -0.000015 0.000000 -0.000010 91.895954 -1.289537 -4.449663 0.000000 0.000003 -3.000000 -5.000038 -7.999932 0.000001 -16.371648 59.444618 19.337686 -55.500608 140.588502 81.280706 -0.000000 -0.000001 -0.000002 93.530268 -1.969520 6.779697 0.000008 -0.000009 3.000011 -4.999883 8.000054 0.000021 -6.406239 -176.866656 -0.166533 -179.999991 0.000005 -0.839002 168.225264 -0.135102 -1.111166 0.000002 -0.000001 0.097362 69.574288 5.422636 5.951450 25.456959 -7.355615 -0.000001 -0.192904 175.620023 -3.234117 -0.000005 -0.000004 -1.013610 -11.734185 1.260856 0.992104 0.000001 0.000002 -0.271087 74.323530 -6.417648 -3.124678 25.457966 7.355615 -0.001550 
